<svg xmlns="http://www.w3.org/2000/svg" width="82" height="88" viewBox="0 0 82 88" role="img"><title>LangChain</title><defs><filter id="glow" x="-50%" y="-50%" width="200%" height="200%"><feGaussianBlur stdDeviation="2" result="blur"/><feMerge><feMergeNode in="blur"/><feMergeNode in="SourceGraphic"/></feMerge></filter><style>.logo{fill:#22D3EE;filter:url(#glow);transform-box:fill-box;transform-origin:center;animation:breathe 3.2s ease-in-out infinite}.label{fill:#94A3B8;font:700 9px Arial,sans-serif;letter-spacing:.35px;animation:labelGlow 3.6s 1.05ss ease-in-out infinite}@keyframes breathe{0%,100%{transform:scale(.92) rotate(-3deg)}50%{transform:scale(1.07) rotate(3deg)}}@keyframes labelGlow{0%,60%,100%{fill:#64748B;filter:none;opacity:.72}72%,86%{fill:#F8FAFC;filter:url(#glow);opacity:1}}@media(prefers-reduced-motion:reduce){.logo,.label{animation:none}}</style></defs><g transform="translate(21 11) scale(1.6667)"><path class="logo" d="M13.796 0a6.93 6.93 0 0 0-4.91 2.019L5.451 5.455l3.273 3.27 3.432-3.432a2.284 2.284 0 0 1 3.277 0 2.28 2.28 0 0 1 0 3.275L12 12.001l3.273 3.273 3.433-3.435c2.692-2.692 2.692-7.127 0-9.82A6.92 6.92 0 0 0 13.796 0m-5.07 8.728-3.433 3.434c-2.692 2.693-2.692 7.126 0 9.819A6.92 6.92 0 0 0 10.203 24a6.93 6.93 0 0 0 4.911-2.02l3.432-3.432-3.271-3.272-3.433 3.433a2.284 2.284 0 0 1-3.277 0 2.28 2.28 0 0 1 0-3.276L12 12z"/></g><text class="label" x="41" y="76" text-anchor="middle">LangChain</text></svg>
